# xmcd CD database file
#
# Track frame offsets:
#	150
#	27530
#	46262
#	77477
#	99905
#	128082
#	154080
#	186782
#	201080
#	217647
#	251959
#	278780
#
# Disc length: 3976 seconds
#
# Revision: 0
# Processed by: cddbd v1.5.2PL0 Copyright (c) Steve Scherf et al.
# Submitted via: CDex 1.51
#
DISCID=9b0f860c
DTITLE=European Jazz Trio - Barcelona's Flame
DYEAR=2004
DGENRE=Jazz
TTITLE0=Day dreams
TTITLE1=Strawberry fields forever
TTITLE2=Concerto d'Aranjuez
TTITLE3=If You Leave Me Now
TTITLE4=My Parents
TTITLE5=Little Princess
TTITLE6=Poco Poco
TTITLE7=Gipsy In My Soul
TTITLE8=Comecar De Novo
TTITLE9=Stella By Starlight
TTITLE10=All Or Nothin At All
TTITLE11=Rock Beach (Barcelona's Flame)
EXTD=YEAR: 2004
EXTT0=
EXTT1=
EXTT2=
EXTT3=
EXTT4=
EXTT5=
EXTT6=
EXTT7=
EXTT8=
EXTT9=
EXTT10=
EXTT11=
PLAYORDER=
